<?xml version="1.0" encoding="UTF-8" standalone="no"?>
<svg
   width="168"
   height="88"
   viewBox="0 0 168 88"
   fill="none"
   version="1.1"
   id="svg1"
   sodipodi:docname="VectorAlbnegru.svg"
   xml:space="preserve"
   inkscape:version="1.3.2 (091e20e, 2023-11-25, custom)"
   xmlns:inkscape="http://www.inkscape.org/namespaces/inkscape"
   xmlns:sodipodi="http://sodipodi.sourceforge.net/DTD/sodipodi-0.dtd"
   xmlns="http://www.w3.org/2000/svg"
   xmlns:svg="http://www.w3.org/2000/svg"><defs
     id="defs1" /><sodipodi:namedview
     id="namedview1"
     pagecolor="#ffffff"
     bordercolor="#000000"
     borderopacity="0.25"
     inkscape:showpageshadow="2"
     inkscape:pageopacity="0.0"
     inkscape:pagecheckerboard="0"
     inkscape:deskcolor="#d1d1d1"
     inkscape:zoom="3.46875"
     inkscape:cx="49.297297"
     inkscape:cy="73.081081"
     inkscape:window-width="1920"
     inkscape:window-height="991"
     inkscape:window-x="-9"
     inkscape:window-y="-9"
     inkscape:window-maximized="1"
     inkscape:current-layer="svg1" /><g
     style="fill:#999999"
     id="g4"
     transform="translate(41.924684,32.251896)"><path
       id="Vector"
       d="m 4.2513107,-13.087147 c -0.0068,-2.9875 -1.3259,-5.85089 -3.66859996,-7.96358 -2.34270004,-2.11269 -5.51830004,-3.302637 -8.83180004,-3.30942 v 0 c -3.3143997,0.0054 -6.4914497,1.19477 -8.8353997,3.30761 -2.34395,2.11284 -3.663809,4.977 -3.670583,7.96539 V 3.3870529 c 0,0 25.0034827,-2.51080001 25.0063827,-16.4716999 z"
       fill="#404bbf"
       transform="translate(33.921624,19.651482)"
       style="display:inline;fill:#999999" /><path
       id="Vector-2"
       d="m 7.116696,10.098877 h -0.00285 c -2.38565,0 -4.319603,1.743611 -4.319603,3.894461 v 0.0026 c 0,2.15086 1.933953,3.89447 4.319603,3.89447 h 0.00285 c 2.38565,0 4.319599,-1.74361 4.319599,-3.89447 v -0.0026 c 0,-2.15085 -1.933949,-3.894461 -4.319599,-3.894461 z"
       fill="#404bbf"
       style="display:inline;fill:#999999" /></g><g
     style="fill:#999999"
     id="g6"
     transform="translate(78.359092,52.207679)"><path
       id="Vector-5"
       d="m -42.095149,10.013868 c 0.006,2.0787 0.924346,4.0707 2.55434,5.5408 1.62999,1.4701 3.83911,2.298801 6.14464,2.304901 2.30502,-0.0061 4.51372,-0.834401 6.14362,-2.304001 1.6299,-1.4695 2.5486,-3.4609 2.5554,-5.5392 V -1.4466444 c 0,0 -17.398,1.74834302 -17.398,11.4605124 z m 8.69898,2.0538 c -0.45054,0 -0.89096,-0.1204 -1.26557,-0.3461 -0.37461,-0.2257 -0.66658,-0.5465 -0.839,-0.9218 -0.17241,-0.3753 -0.21752,-0.7882 -0.12962,-1.1865998 0.08789,-0.3984 0.30485,-0.7644 0.62343,-1.0516 0.31857,-0.2872999 0.72447,-0.4828999 1.16635,-0.5620999 0.44188,-0.0793 0.89991,-0.0386 1.31615,0.1169 0.41624,0.1554 0.77198,0.4186999 1.02228,0.7563999 0.2503,0.3378 0.3839,0.7349 0.3839,1.1410998 0.0012,0.2703 -0.0569,0.5382 -0.1709,0.7883 -0.114,0.2501 -0.2816,0.4774 -0.4932,0.6689 -0.2117,0.1916 -0.46317,0.3435 -0.7401,0.4472 -0.27694,0.1037 -0.57385,0.1571 -0.87372,0.1571 z"
       fill="#404bbf"
       style="fill:#999999" /></g><text
     xml:space="preserve"
     style="font-style:normal;font-variant:normal;font-weight:bold;font-stretch:normal;font-size:5.33333px;font-family:Arial;-inkscape-font-specification:'Arial Bold';fill:#999999;fill-opacity:1"
     x="65.226105"
     y="64.406242"
     id="text6"><tspan
       sodipodi:role="line"
       id="tspan6"
       x="65.226105"
       y="64.406242">FOSTER PETERS</tspan></text></svg>
